# xmcd
#
# Track frame offsets:
#	150
#	18478
#	34202
#	52757
#	70894
#	86636
#	104069
#	121463
#
# Disc length: 1831 seconds
#
# Revision: 2
# Processed by: cddbd v1.5.2PL0 Copyright (c) Steve Scherf et al.
# Submitted via: EasyCDDAExtractor 10.0.5.1
#
DISCID=69072508
DTITLE=Essi - Mishkanam Mishkanam
DYEAR=2006
DGENRE=Pop
TTITLE0=Mishkanam Mishkanam
TTITLE1=Atr Goleh Yaas
TTITLE2=Bi Cheshm-o-Roo
TTITLE3=Montazer Yaa Alitam
TTITLE4=Eshghi Eshghi
TTITLE5=Iran Iran
TTITLE6=Khaanoom Khaanoom
TTITLE7=Mahtaab ~ji
EXTD=
EXTT0=
EXTT1=
EXTT2=
EXTT3=
EXTT4=
EXTT5=
EXTT6=
EXTT7=
PLAYORDER=
